# xmcd
#
# Track frame offsets: 
#        150
#        17745
#        38557
#        54970
#        71206
#        86755
#        104845
#        123861
#        141033
#        158132
#        170025
#        187315
#        205128
#        222765
#        242270
#        259307
#        277808
#        294687
#        307375
#        323922
#
# Disc length: 4563 seconds
#
# Revision: 0
# Processed by: cddbd v1.5.2PL0 Copyright (c) Steve Scherf et al.
# Submitted via: ExactAudioCopy v0.99pb3
#
DISCID=3311d114
DTITLE=Various Artist - Nu Urban Traxx #144
DYEAR=2009
DGENRE=R&B
TTITLE0=Alicia Keys - Doesn't Mean A Thing
TTITLE1=Jay z Ft Alicia Keys - Empire State Of Mind
TTITLE2=Mariah Carey - I Want To Know What Love Is
TTITLE3=50 Cent Ft Ne Yo - Baby By Me
TTITLE4=Sean Paul - Hold My Hand
TTITLE5=Hurricane Chris Ft Mario and Plies - Headboard
TTITLE6=Juvenile - Gotta Get It
TTITLE7=Toni Braxton - Yesterday
TTITLE8=Lil Scrappy Ft Ludacris - Addicted To Money 
TTITLE9=Consequence Ft Kanye West - Whatever You Want
TTITLE10=6Treg - Fresh
TTITLE11=Fat Joe Ft Pleasure P and Rico - Aloha
TTITLE12=Twista Ft R Kelly - Yellow Light
TTITLE13=Day 26 - So Good
TTITLE14=Black Eyed Peas - Meet Me Halfway
TTITLE15=Wale Ft Jazmine Sullivan - World Tour
TTITLE16=Jaicko Ft Snoop Dogg - Oh Yeah
TTITLE17=Playaz Circle Ft Bobby Valentino - Can't Remember
TTITLE18=Michael franti and Spearhead - Say Hey (I Love You)(Urban Mix)
TTITLE19=Rick Ross Ft Robin Thicke - Lay Back
EXTD=
EXTT0=
EXTT1=
EXTT2=
EXTT3=
EXTT4=
EXTT5=
EXTT6=
EXTT7=
EXTT8=
EXTT9=
EXTT10=
EXTT11=
EXTT12=
EXTT13=
EXTT14=
EXTT15=
EXTT16=
EXTT17=
EXTT18=
EXTT19=
PLAYORDER=
